<?xml version="1.0" encoding="UTF-8"?>
<svg xmlns="http://www.w3.org/2000/svg" width="192" height="192" viewBox="0 0 192 192">
  <rect width="100%" height="100%" rx="24" fill="#006bb3" />
  <g transform="translate(40,44) scale(0.7)" fill="#fff">
    <path d="M80 16c-35.346 0-64 28.654-64 64s28.654 64 64 64 64-28.654 64-64S115.346 16 80 16zm0 8c30.928 0 56 25.072 56 56s-25.072 56-56 56S24 110.928 24 80 49.072 24 80 24z" />
    <rect x="8" y="56" width="16" height="8" rx="2" />
    <rect x="32" y="48" width="8" height="8" rx="2" />
    <rect x="48" y="64" width="8" height="8" rx="2" />
    <rect x="72" y="56" width="8" height="8" rx="2" />
    <circle cx="112" cy="64" r="6" />
    <circle cx="128" cy="80" r="6" />
  </g>
</svg>
